# xmcd
#
# Track frame offsets:
#	150
#	10477
#	22477
#	31642
#	41535
#	52950
#	64050
#	73045
#	82447
#	91635
#	103407
#	113612
#	125655
#	137577
#	149980
#	161130
#	172995
#	184492
#	194510
#	205550
#	215170
#
# Disc length: 2987 seconds
#
# Revision: 0
# Processed by: cddbd v1.5.2PL0 Copyright (c) Steve Scherf et al.
# Submitted via: audiograbber 1.83.01
#
DISCID=450ba915
DTITLE=Bonnie Owens - Queen Of The Coast [CD 3)
DYEAR=2007
DGENRE=Country
TTITLE0=Will You Want Me Just As Much
TTITLE1=Any Part Of You
TTITLE2=I Won't Go Lookin' For You
TTITLE3=Gone Crazy
TTITLE4=The Best Part Of Me
TTITLE5=All Of Me Belongs To You
TTITLE6=If You Really Want Me To (unrel.)
TTITLE7=Adios, Farewell, Goodbye, Good Luck, So Long (unrel.)
TTITLE8=If You Really Want Me To
TTITLE9=Everything That's Fastened Down Is Comin' Loose
TTITLE10=I'd Be More Of A Woman
TTITLE11=I Wish I Felt This Way At Home
TTITLE12=Hangin' On
TTITLE13=The Back Of My Hand
TTITLE14=I Let A Stranger Buy The Wine
TTITLE15=Number 82
TTITLE16=Don't Tell Me
TTITLE17=Just One Time
TTITLE18=Somewhere Between
TTITLE19=Wabash Cannon Ball
TTITLE20=Tonight I'll Throw A Party
EXTD=
EXTT0=
EXTT1=
EXTT2=
EXTT3=
EXTT4=
EXTT5=
EXTT6=
EXTT7=
EXTT8=
EXTT9=
EXTT10=
EXTT11=
EXTT12=
EXTT13=
EXTT14=
EXTT15=
EXTT16=
EXTT17=
EXTT18=
EXTT19=
EXTT20=
PLAYORDER=
